<svg xmlns="http://www.w3.org/2000/svg" viewBox="0 0 96 96" role="img" aria-labelledby="title desc">
  <title id="title">P&amp;C Supplements</title>
  <desc id="desc">Purple scientific monogram with a microscope symbol.</desc>
  <defs>
    <linearGradient id="mark" x1="14" y1="10" x2="82" y2="86" gradientUnits="userSpaceOnUse">
      <stop offset="0" stop-color="#c084fc"/>
      <stop offset="0.52" stop-color="#8b5cf6"/>
      <stop offset="1" stop-color="#4c1d95"/>
    </linearGradient>
    <linearGradient id="glass" x1="28" y1="26" x2="72" y2="76" gradientUnits="userSpaceOnUse">
      <stop offset="0" stop-color="#ffffff"/>
      <stop offset="1" stop-color="#ddd6fe"/>
    </linearGradient>
  </defs>
  <rect width="96" height="96" rx="21" fill="#170f29"/>
  <path d="M12 64C20 40 34 18 58 14c17-3 28 7 27 22-1 21-25 43-50 46-15 2-27-4-23-18Z" fill="url(#mark)" opacity=".98"/>
  <path d="M34 24h16v8H34z" fill="#fff" opacity=".92"/>
  <path d="M42 30l22 22-7 7-22-22z" fill="url(#glass)"/>
  <path d="M58 55l8 8m-17-1h24m-30 8h36" stroke="#fff" stroke-width="5" stroke-linecap="round" opacity=".92"/>
  <path d="M29 72c7-10 14-15 26-14" fill="none" stroke="#ddd6fe" stroke-width="5" stroke-linecap="round"/>
  <text x="48" y="47" text-anchor="middle" fill="#fff" font-family="Arial, Helvetica, sans-serif" font-size="19" font-weight="800" letter-spacing="0">P&amp;C</text>
</svg>
